<?xml version="1.0" standalone="no"?>
<!DOCTYPE svg PUBLIC "-//W3C//DTD SVG 20010904//EN"
 "http://www.w3.org/TR/2001/REC-SVG-20010904/DTD/svg10.dtd">
<svg version="1.0" xmlns="http://www.w3.org/2000/svg"
 width="700.000000pt" height="700.000000pt" viewBox="0 0 700.000000 700.000000"
 preserveAspectRatio="xMidYMid meet">
<metadata>
Created by potrace 1.11, written by Peter Selinger 2001-2013
</metadata>
<g transform="translate(0.000000,700.000000) scale(0.100000,-0.100000)"
fill="#000000" stroke="none">
<path d="M1174 6515 c-7 -17 2 -2913 9 -2960 3 -22 8 -74 11 -115 4 -41 8 -86
10 -100 3 -14 10 -61 16 -105 32 -231 91 -453 174 -663 36 -89 146 -311 167
-335 5 -7 30 -41 55 -77 241 -348 651 -589 1079 -635 33 -4 71 -8 85 -11 91
-16 388 0 490 26 19 5 49 11 66 14 94 17 330 105 496 187 364 180 724 454 921
699 76 95 81 98 134 92 6 -1 19 -22 28 -46 18 -48 19 -67 15 -641 -2 -267 4
-451 15 -495 2 -8 6 -37 10 -65 16 -142 29 -201 68 -316 89 -259 246 -420 457
-469 102 -24 115 -25 180 -24 114 2 120 4 145 28 42 42 35 59 -160 436 -120
231 -178 409 -201 615 -4 33 -8 1163 -9 2510 -2 1348 -3 2453 -4 2456 0 3
-140 5 -311 5 -170 0 -310 -2 -311 -5 -1 -3 -2 -490 -4 -1081 -3 -1102 -5
-1215 -30 -1570 -7 -92 -29 -283 -39 -335 -2 -11 -7 -40 -11 -65 -13 -76 -14
-83 -35 -163 -67 -263 -209 -497 -439 -725 -145 -144 -289 -250 -446 -327
-179 -89 -344 -138 -534 -159 -68 -8 -282 -8 -341 -1 -289 38 -516 146 -685
327 -77 82 -101 114 -162 213 -100 162 -212 503 -238 723 -3 26 -7 54 -10 62
-2 8 -7 47 -10 85 -4 39 -9 86 -10 105 -15 150 -18 449 -19 1600 l-1 1315
-309 1 c-222 0 -309 -3 -312 -11z"/>
</g>
</svg>
