<?xml version="1.0" standalone="no"?>
<!DOCTYPE svg PUBLIC "-//W3C//DTD SVG 20010904//EN"
 "http://www.w3.org/TR/2001/REC-SVG-20010904/DTD/svg10.dtd">
<svg version="1.0" xmlns="http://www.w3.org/2000/svg"
 width="700.000000pt" height="700.000000pt" viewBox="0 0 700.000000 700.000000"
 preserveAspectRatio="xMidYMid meet">
<metadata>
Created by potrace 1.11, written by Peter Selinger 2001-2013
</metadata>
<g transform="translate(0.000000,700.000000) scale(0.100000,-0.100000)"
fill="#000000" stroke="none">
<path d="M1168 6703 c-329 -314 -628 -618 -628 -639 0 -11 40 -104 89 -205
329 -680 509 -1379 528 -2041 l6 -218 1046 0 1046 0 -537 537 -536 536 -74
-18 c-92 -22 -210 -80 -310 -152 -101 -73 -265 -242 -361 -372 -73 -98 -76
-102 -83 -76 -10 41 3 259 20 340 49 231 170 472 325 648 28 32 51 62 51 66 0
4 -14 20 -30 36 l-30 29 87 88 87 88 31 -30 c17 -17 34 -30 37 -30 4 0 33 23
65 51 177 155 418 276 648 325 85 18 277 30 330 20 l38 -7 -49 -35 c-184 -129
-368 -309 -461 -450 -62 -95 -120 -227 -129 -296 l-5 -43 505 -505 506 -505 0
1458 0 1458 -52 -6 c-277 -33 -472 -91 -713 -214 -107 -54 -112 -56 -190 -55
-73 1 -108 10 -395 101 -173 55 -405 132 -516 172 -110 39 -203 71 -207 71 -3
0 -66 -57 -139 -127z"/>
<path d="M5410 5800 c-113 -14 -223 -62 -361 -156 -139 -95 -212 -160 -494
-443 l-270 -271 125 -125 125 -125 -1222 -1222 -1223 -1223 -79 79 -79 79
-161 -154 -160 -154 219 -220 220 -220 146 145 c80 80 150 153 156 164 9 16
-1 30 -66 95 l-76 76 1217 1217 1218 1218 122 -122 123 -123 276 275 c295 294
362 371 459 520 110 169 152 292 142 415 -6 84 -30 137 -84 191 -70 68 -165
98 -273 84z"/>
<path d="M4523 2702 l697 -697 -92 -93 -93 -92 -727 727 -728 728 0 -1553 c0
-1154 3 -1552 11 -1552 22 0 214 62 324 105 688 267 1423 830 2030 1555 107
127 295 378 295 393 0 6 -40 90 -89 186 -153 304 -240 582 -282 899 l-12 92
-1016 0 -1016 0 698 -698z"/>
</g>
</svg>
