<?xml version="1.0" encoding="utf-8"?>
<!-- Generator: Adobe Illustrator 16.0.0, SVG Export Plug-In . SVG Version: 6.00 Build 0)  -->
<!DOCTYPE svg PUBLIC "-//W3C//DTD SVG 1.1//EN" "http://www.w3.org/Graphics/SVG/1.1/DTD/svg11.dtd">
<svg version="1.1" id="Layer_1" xmlns="http://www.w3.org/2000/svg" xmlns:xlink="http://www.w3.org/1999/xlink" x="0px" y="0px"
	 width="425.416px" height="104.263px" viewBox="0 0 425.416 104.263" enable-background="new 0 0 425.416 104.263"
	 xml:space="preserve">
<g>
	<path fill="#FFFFFF" d="M419.323,101.763l-0.25,2.5c0,0-341.375-0.583-359.875-0.583c-16.167,0-6.542-30.833-11.76-26.569
		c-3.24,4.902-14.564,13.097-23.961,13.097C7.323,90.208,0,77.513,0,59.013V24.666h8.148v30.48c0,7.492-0.325,27.485,16.973,27.485
		c5.089,0,9.563-1.634,13.42-4.903c3.855-3.27,6.303-6.852,7.341-10.748c1.037-3.895,1.556-10.189,1.556-18.881V24.666h8.222
		l0.019,63.282c0,9.565,3.479,8.732,16.979,8.732C91.175,96.68,419.323,101.763,419.323,101.763z"/>
	<path fill="#FFFFFF" d="M155.792,18.206l-6.813,5.227c-3.759-4.894-8.271-8.604-13.537-11.129
		c-5.266-2.525-11.051-3.788-17.354-3.788c-6.892,0-13.273,1.655-19.146,4.963C93.07,16.787,88.519,21.23,85.289,26.81
		c-3.23,5.58-4.845,11.854-4.845,18.823c0,10.533,3.612,19.322,10.835,26.369c7.223,7.047,16.335,10.571,27.338,10.571
		c12.098,0,22.219-4.737,30.363-14.212l6.813,5.168c-4.307,5.481-9.681,9.719-16.121,12.715c-6.441,2.994-13.635,4.492-21.583,4.492
		c-15.114,0-27.036-5.03-35.766-15.094c-7.322-8.495-10.982-18.753-10.982-30.773c0-12.646,4.434-23.286,13.302-31.919
		C93.511,4.317,104.62,0,117.971,0c8.065,0,15.348,1.596,21.847,4.787C146.317,7.978,151.642,12.451,155.792,18.206z"/>
	<path fill="#FFFFFF" d="M202.013,23.022c9.844,0,18.002,3.563,24.473,10.688c5.885,6.5,8.826,14.193,8.826,23.08
		c0,8.927-3.109,16.729-9.326,23.404s-14.207,10.013-23.973,10.013c-9.807,0-17.817-3.337-24.034-10.013
		c-6.217-6.676-9.325-14.478-9.325-23.404c0-8.848,2.941-16.522,8.825-23.021C183.95,26.604,192.128,23.022,202.013,23.022z
		 M201.983,31.067c-6.838,0-12.712,2.525-17.623,7.576s-7.367,11.159-7.367,18.323c0,4.621,1.119,8.928,3.359,12.921
		c2.239,3.993,5.265,7.077,9.076,9.25c3.811,2.173,7.996,3.259,12.554,3.259c4.557,0,8.74-1.086,12.553-3.259
		c3.811-2.173,6.836-5.257,9.076-9.25c2.238-3.993,3.359-8.3,3.359-12.921c0-7.164-2.465-13.272-7.396-18.323
		S208.78,31.067,201.983,31.067z"/>
	<path fill="#FFFFFF" d="M249.465,24.666h8.222V54.5c0,7.282,0.393,12.294,1.177,15.034c1.177,3.916,3.421,7.01,6.734,9.279
		c3.313,2.271,7.264,3.406,11.852,3.406c4.587,0,8.479-1.105,11.675-3.318c3.195-2.211,5.401-5.118,6.617-8.721
		c0.823-2.467,1.235-7.693,1.235-15.681V24.666h8.398v31.361c0,8.81-1.028,15.446-3.084,19.91
		c-2.055,4.463-5.148,7.957-9.278,10.482c-4.132,2.525-9.309,3.788-15.534,3.788s-11.423-1.263-15.593-3.788
		s-7.282-6.049-9.338-10.571s-3.083-11.324-3.083-20.408V24.666z"/>
	<path fill="#FFFFFF" d="M323.64,24.666h8.222v11.452c3.289-4.384,6.93-7.664,10.924-9.837c3.993-2.173,8.339-3.259,13.037-3.259
		c4.776,0,9.015,1.214,12.715,3.641c3.7,2.428,6.431,5.697,8.192,9.808c1.763,4.111,2.644,10.512,2.644,19.205v32.888h-8.223V58.083
		c0-7.361-0.306-12.275-0.914-14.742c-0.953-4.229-2.781-7.409-5.482-9.543c-2.701-2.133-6.227-3.201-10.572-3.201
		c-4.974,0-9.429,1.645-13.363,4.933c-3.936,3.289-6.53,7.361-7.782,12.216c-0.784,3.171-1.175,8.966-1.175,17.384v23.433h-8.222
		V24.666z"/>
	<path fill="#FFFFFF" d="M404.156,0.94h8.223v23.726h13.037v7.106h-13.037v56.791h-8.223V31.772h-11.217v-7.106h11.217V0.94z"/>
</g>
<g>
</g>
<g>
</g>
<g>
</g>
<g>
</g>
<g>
</g>
<g>
</g>
</svg>
